<svg xmlns="http://www.w3.org/2000/svg" width="266.387" height="80.672" viewBox="0 0 266.387 80.672">
  <g id="Group_62" data-name="Group 62" transform="translate(-142.947 -119.194)">
    <path id="Path_125" data-name="Path 125" d="M1757.246,187.226l-34.2,14.977a1.2,1.2,0,0,0-.731,1.06v17.691a1.219,1.219,0,0,0,.551,1.06,1.176,1.176,0,0,0,.667.2,1.156,1.156,0,0,0,.488-.106l34.194-14.977a1.229,1.229,0,0,0,.731-1.06V188.339a1.208,1.208,0,0,0-1.7-1.113Z" transform="translate(-1537.516 -22.35)" fill="#fff"/>
    <path id="Path_127" data-name="Path 127" d="M1718.264,222.212a1.177,1.177,0,0,0,.668-.2,1.22,1.22,0,0,0,.551-1.06V203.3a1.229,1.229,0,0,0-.731-1.06l-34.226-14.967a1.219,1.219,0,0,0-1.145.1,1.2,1.2,0,0,0-.551,1.06v17.638a1.23,1.23,0,0,0,.731,1.06l34.215,14.967A1.154,1.154,0,0,0,1718.264,222.212Z" transform="translate(-1539.882 -22.347)" fill="#fff"/>
    <path id="Path_126" data-name="Path 126" d="M1722.291,179.243v17.67a1.229,1.229,0,0,0,.551,1.06,1.25,1.25,0,0,0,.668.191,1.323,1.323,0,0,0,.487-.1l34.216-14.977a1.209,1.209,0,0,0,.731-1.113V164.265a1.23,1.23,0,0,0-1.707-1.06l-34.194,14.924a1.218,1.218,0,0,0-.752,1.113Z" transform="translate(-1537.517 -23.79)" fill="#fff"/>
    <path id="Path_128" data-name="Path 128" d="M1683.551,183.072l34.226,14.977a1.325,1.325,0,0,0,.488.1,1.251,1.251,0,0,0,.667-.191,1.229,1.229,0,0,0,.551-1.06V179.246a1.218,1.218,0,0,0-.731-1.113l-34.226-14.977a1.2,1.2,0,0,0-1.145.106,1.219,1.219,0,0,0-.551,1.007v17.691A1.209,1.209,0,0,0,1683.551,183.072Z" transform="translate(-1539.882 -23.793)" fill="#fff"/>
    <path id="Path_130" data-name="Path 130" d="M1814.593,160.67a28.936,28.936,0,0,0-11.3-2.12c-7.579,0-13.546,2.173-17.754,6.445s-6.36,10.748-6.36,19.26c0,17.055,8.108,25.7,24.082,25.7a28.873,28.873,0,0,0,11.405-2.12,17.914,17.914,0,0,0,7.981-6.519,18.988,18.988,0,0,0,2.979-10.812v-.742h-11.564v.71a8.543,8.543,0,0,1-2.809,6.858,11.428,11.428,0,0,1-7.738,2.5c-8.332,0-12.38-4.77-12.38-14.564v-2.12c0-4.738,1.06-8.395,3.074-10.875s5.141-3.689,9.307-3.689a10.758,10.758,0,0,1,7.419,2.533,8.714,8.714,0,0,1,2.788,6.9v.71h11.9v-.625a19,19,0,0,0-2.968-10.78,18.019,18.019,0,0,0-8.066-6.657Z" transform="translate(-1534.107 -24.065)" fill="#fff"/>
    <path id="Path_131" data-name="Path 131" d="M3116.339,188.712h24.633v-10.08h-24.633V169.42h27.729V159.34H3104.7v49.712h39.791v-10.08h-28.153Z" transform="translate(-2799.973 -24.016)" fill="#fff"/>
    <path id="Path_132" data-name="Path 132" d="M1920.549,159.342l-6.89,27.156c-.286,1.177-.657,3.106-1.06,5.713q-.2,1.24-.381,2.226c-.117-.625-.254-1.325-.4-2.12-.488-2.565-.933-4.537-1.314-5.851l-6.89-27.146H1886.44v49.712h11.193V177.584c0-.509,0-1.23-.074-2.173l8.479,33.643h10.822l8.479-33.336.074-.286c0,.89-.063,1.611-.063,2.12v31.47h11.659V159.31Z" transform="translate(-1527.677 -24.018)" fill="#fff"/>
    <path id="Path_129" data-name="Path 129" d="M1687.271,159.224h0l33.918,14.839a1.26,1.26,0,0,0,.487.106,1.187,1.187,0,0,0,.466-.1l36.038-15.37a1.208,1.208,0,0,0-.064-2.268l-36.038-12.243a1.231,1.231,0,0,0-.827,0l-33.918,12.783a1.208,1.208,0,0,0-.784,1.06A1.176,1.176,0,0,0,1687.271,159.224Z" transform="translate(-1539.66 -24.929)" fill="#fff"/>
  </g>
</svg>
